<svg id="svg" version="1.1" xmlns="http://www.w3.org/2000/svg" xmlns:xlink="http://www.w3.org/1999/xlink" width="400" height="107.07070707070707" viewBox="0, 0, 400,107.07070707070707"><g id="svgg"><path id="path0" d="M177.250 0.116 C 175.750 0.464,173.254 1.291,172.512 1.686 C 172.015 1.950,171.547 2.167,171.473 2.167 C 170.567 2.167,164.500 7.320,164.500 8.090 C 164.500 8.151,164.323 8.412,164.106 8.670 C 161.560 11.696,159.910 18.921,160.796 23.167 C 161.508 26.579,161.620 26.929,162.692 29.083 C 164.343 32.403,167.350 35.663,170.305 37.335 C 172.010 38.301,172.398 38.500,172.573 38.500 C 172.682 38.500,173.179 38.697,173.677 38.937 C 176.786 40.437,183.192 40.647,187.250 39.380 C 188.815 38.892,191.748 37.489,192.716 36.765 C 195.255 34.868,196.407 33.715,198.263 31.216 C 202.931 24.931,202.373 13.131,197.138 7.417 C 196.004 6.180,194.049 4.318,193.799 4.239 C 193.635 4.187,193.500 4.080,193.500 4.001 C 193.500 3.922,193.031 3.574,192.458 3.228 C 191.885 2.881,191.318 2.501,191.196 2.382 C 191.075 2.264,190.882 2.167,190.768 2.167 C 190.653 2.167,190.152 1.946,189.655 1.677 C 189.157 1.407,188.450 1.110,188.083 1.016 C 187.717 0.923,186.742 0.656,185.917 0.424 C 184.475 0.018,178.576 -0.192,177.250 0.116 M49.583 0.572 C 49.033 0.694,48.198 0.874,47.728 0.972 C 46.640 1.199,44.858 1.950,42.810 3.044 C 41.142 3.935,37.955 6.912,36.879 8.583 C 36.584 9.042,36.269 9.503,36.180 9.608 C 35.742 10.126,34.624 12.701,34.077 14.452 C 32.487 19.538,33.436 26.073,36.413 30.529 L 36.822 31.141 35.914 31.654 C 35.414 31.936,34.933 32.167,34.845 32.167 C 34.633 32.167,33.432 32.870,33.361 33.036 C 33.331 33.108,33.201 33.167,33.074 33.167 C 32.947 33.167,32.522 33.381,32.130 33.643 C 31.738 33.904,31.086 34.336,30.682 34.601 C 29.399 35.444,29.231 35.564,27.932 36.560 C 25.099 38.732,21.726 42.133,19.833 44.728 C 19.512 45.168,19.044 45.775,18.792 46.077 C 18.540 46.380,18.333 46.666,18.333 46.713 C 18.333 46.760,17.922 47.405,17.420 48.147 C 16.918 48.888,16.262 49.956,15.962 50.519 C 14.707 52.874,14.166 53.954,13.922 54.592 C 13.287 56.255,12.917 56.703,11.244 57.833 C 10.822 58.118,10.329 58.483,9.162 59.375 C 8.711 59.719,8.280 60.000,8.203 60.000 C 8.126 60.000,7.847 60.225,7.583 60.500 C 7.320 60.775,7.044 61.000,6.970 61.000 C 6.117 61.000,2.167 64.966,2.167 65.822 C 2.167 65.896,2.015 66.299,1.831 66.717 C 1.483 67.503,1.270 68.814,0.996 71.852 C 0.908 72.825,0.648 74.269,0.418 75.063 C -0.272 77.444,-0.187 78.480,0.774 79.414 C 1.200 79.828,1.614 80.167,1.694 80.167 C 1.960 80.167,3.167 81.041,3.167 81.233 C 3.167 81.337,2.983 81.693,2.759 82.023 C -0.184 86.353,3.304 92.372,10.000 94.521 L 11.750 95.083 15.417 95.081 C 20.984 95.078,24.285 93.801,27.145 90.544 L 27.989 89.583 27.726 90.583 C 27.027 93.240,27.903 95.647,30.364 97.833 C 32.666 99.879,35.496 102.860,35.503 103.247 C 35.506 103.434,36.662 104.684,37.426 105.325 C 39.352 106.942,44.324 106.295,46.240 104.177 C 46.412 103.988,46.624 103.833,46.712 103.833 C 46.849 103.833,47.677 103.011,48.810 101.750 C 50.160 100.247,51.162 96.947,51.165 93.990 C 51.167 91.675,51.288 91.407,52.264 91.559 C 54.735 91.944,55.797 91.856,57.135 91.154 C 58.001 90.700,60.167 88.482,60.167 88.050 C 60.167 87.965,60.395 87.727,60.674 87.521 L 61.181 87.146 62.465 87.677 C 65.455 88.911,65.238 88.863,67.503 88.804 C 69.513 88.752,71.318 88.229,72.000 87.501 C 72.046 87.452,72.458 87.100,72.917 86.720 C 73.375 86.339,74.161 85.540,74.664 84.944 L 75.577 83.860 76.330 84.562 C 77.208 85.380,78.855 86.501,79.579 86.773 C 79.856 86.877,80.458 87.115,80.917 87.302 C 83.767 88.465,88.332 88.736,91.333 87.920 C 91.837 87.783,92.391 87.670,92.562 87.669 C 92.991 87.666,95.383 86.576,96.500 85.874 C 99.993 83.680,101.703 79.548,100.413 76.417 C 100.187 75.867,100.001 75.352,100.001 75.272 C 100.000 75.193,99.625 74.651,99.167 74.068 C 98.196 72.833,98.196 72.833,98.779 72.833 C 99.251 72.833,102.184 71.962,104.433 71.152 C 105.176 70.885,105.863 70.667,105.960 70.667 C 106.058 70.667,106.750 70.404,107.500 70.083 C 108.250 69.763,108.955 69.500,109.067 69.500 C 109.179 69.500,109.653 69.316,110.120 69.090 C 110.587 68.865,111.182 68.629,111.443 68.566 C 111.703 68.503,112.466 68.200,113.137 67.892 C 113.808 67.585,114.451 67.333,114.564 67.333 C 114.678 67.333,115.160 67.146,115.635 66.917 C 116.110 66.688,116.574 66.500,116.666 66.500 C 116.959 66.500,116.871 64.538,116.571 64.370 C 116.427 64.289,116.221 64.070,116.113 63.884 C 115.715 63.197,114.050 61.220,112.912 60.085 C 111.237 58.415,109.443 58.012,106.949 58.745 C 105.760 59.094,105.550 59.022,105.401 58.217 C 105.105 56.617,102.980 53.233,101.461 51.941 C 100.342 50.990,99.466 50.333,99.318 50.333 C 99.243 50.333,98.820 50.120,98.377 49.859 C 97.394 49.279,94.688 48.362,93.381 48.164 C 90.488 47.727,89.168 47.194,89.167 46.461 C 89.166 46.235,86.609 42.981,86.303 42.817 C 86.136 42.728,86.000 42.569,86.000 42.465 C 86.000 42.199,81.163 37.500,80.889 37.500 C 80.767 37.500,80.667 37.426,80.667 37.335 C 80.667 37.193,79.928 36.615,77.754 35.056 C 76.030 33.820,71.821 31.515,70.042 30.834 C 69.375 30.578,69.357 30.740,70.242 29.023 C 72.637 24.380,73.207 17.820,71.573 13.722 C 71.433 13.371,71.259 12.933,71.186 12.750 C 70.430 10.847,68.628 7.823,67.977 7.366 C 67.806 7.246,67.662 7.058,67.656 6.949 C 67.650 6.839,67.305 6.450,66.889 6.083 C 66.473 5.717,65.902 5.173,65.619 4.875 C 65.337 4.577,65.036 4.333,64.952 4.333 C 64.867 4.333,64.571 4.142,64.293 3.909 C 64.016 3.675,63.480 3.328,63.103 3.136 C 62.725 2.945,62.377 2.727,62.328 2.652 C 62.109 2.314,59.124 1.210,57.167 0.744 C 55.533 0.355,51.020 0.253,49.583 0.572 M124.700 0.700 C 124.435 0.965,124.408 38.349,124.673 38.844 C 124.872 39.217,134.505 39.354,135.178 38.994 C 135.489 38.828,135.500 38.571,135.500 31.744 L 135.500 24.667 142.083 24.667 L 148.667 24.667 148.667 31.744 C 148.667 38.571,148.678 38.828,148.989 38.994 C 149.426 39.228,158.907 39.228,159.344 38.994 C 159.744 38.780,159.864 1.097,159.467 0.700 C 159.181 0.414,149.153 0.414,148.867 0.700 C 148.717 0.849,148.667 2.689,148.667 7.950 L 148.667 15.000 142.083 15.000 L 135.500 15.000 135.500 7.950 C 135.500 2.689,135.449 0.849,135.300 0.700 C 135.014 0.414,124.986 0.414,124.700 0.700 M202.667 0.663 C 202.281 0.907,202.202 38.191,202.585 38.776 L 202.841 39.167 207.909 39.167 C 212.293 39.167,213.011 39.131,213.238 38.905 C 213.471 38.672,213.500 37.488,213.500 28.384 C 213.500 19.285,213.528 18.149,213.750 18.333 C 213.887 18.447,214.000 18.657,214.000 18.799 C 214.000 18.941,214.104 19.175,214.231 19.320 C 214.358 19.465,214.686 19.996,214.959 20.500 C 215.232 21.004,215.764 21.942,216.140 22.583 C 216.517 23.225,216.948 24.012,217.098 24.333 C 217.248 24.654,217.504 25.104,217.666 25.333 C 217.959 25.747,218.825 27.290,219.303 28.250 C 219.441 28.525,219.684 28.940,219.845 29.171 C 220.144 29.603,220.685 30.564,221.515 32.140 C 221.773 32.630,222.056 33.117,222.143 33.223 C 222.230 33.330,222.507 33.792,222.758 34.250 C 223.009 34.708,223.338 35.308,223.489 35.583 C 225.709 39.640,224.728 39.167,230.925 39.167 C 235.102 39.167,236.163 39.122,236.314 38.940 C 236.451 38.775,236.490 33.599,236.459 19.649 L 236.417 0.583 231.167 0.539 C 226.379 0.499,225.898 0.520,225.708 0.779 C 225.548 0.999,225.499 3.186,225.494 10.324 L 225.488 19.583 225.078 19.083 C 224.853 18.808,224.668 18.522,224.667 18.447 C 224.667 18.372,224.442 17.983,224.167 17.583 C 223.892 17.184,223.667 16.805,223.667 16.742 C 223.667 16.679,223.404 16.270,223.083 15.833 C 222.762 15.396,222.500 14.981,222.500 14.910 C 222.500 14.839,222.313 14.536,222.084 14.235 C 221.854 13.935,221.590 13.516,221.495 13.303 C 221.401 13.091,220.957 12.354,220.508 11.667 C 220.060 10.979,219.443 10.010,219.138 9.513 C 218.061 7.759,216.901 5.891,216.038 4.519 C 215.830 4.188,215.574 3.748,215.470 3.542 C 215.365 3.335,215.217 3.167,215.140 3.167 C 215.063 3.167,215.000 3.068,215.000 2.946 C 215.000 2.825,214.777 2.431,214.505 2.071 C 214.232 1.711,214.007 1.335,214.005 1.234 C 213.987 0.547,213.607 0.500,208.154 0.503 C 205.145 0.504,202.810 0.572,202.667 0.663 M237.601 0.764 C 237.416 1.246,237.486 38.495,237.673 38.844 C 237.840 39.156,238.109 39.167,246.131 39.166 C 254.584 39.165,254.518 39.169,258.194 38.500 C 259.193 38.318,261.957 37.058,262.470 36.551 C 262.591 36.431,262.780 36.333,262.890 36.333 C 263.198 36.333,266.191 33.298,266.566 32.604 C 266.672 32.410,266.963 31.933,267.213 31.545 C 267.462 31.157,267.667 30.766,267.667 30.675 C 267.667 30.528,268.085 29.600,268.519 28.785 C 268.606 28.621,268.750 28.133,268.837 27.702 C 268.925 27.270,269.153 26.279,269.344 25.500 C 270.065 22.564,269.978 16.567,269.168 13.333 C 268.996 12.646,268.807 11.861,268.749 11.589 C 268.567 10.747,267.025 7.500,266.806 7.500 C 266.729 7.500,266.667 7.387,266.667 7.249 C 266.667 7.004,264.580 4.479,264.274 4.353 C 264.189 4.318,263.849 4.056,263.518 3.770 C 262.063 2.512,259.549 1.375,257.167 0.897 C 254.639 0.389,237.789 0.275,237.601 0.764 M270.861 0.922 C 270.600 1.496,270.591 22.775,270.851 26.078 C 271.056 28.694,271.693 31.019,272.646 32.632 C 272.932 33.118,273.167 33.557,273.167 33.609 C 273.167 33.982,276.186 37.036,277.115 37.602 C 280.192 39.479,283.278 40.255,287.583 40.236 C 290.930 40.222,294.932 39.446,295.742 38.655 C 295.829 38.570,296.006 38.500,296.137 38.500 C 296.267 38.500,296.812 38.233,297.348 37.908 C 300.945 35.723,303.235 32.088,304.084 27.217 C 304.415 25.320,304.460 1.027,304.133 0.700 C 303.840 0.406,293.575 0.414,293.385 0.708 C 293.311 0.823,293.212 6.617,293.167 13.583 L 293.083 26.250 292.696 27.265 C 291.837 29.514,289.988 30.753,287.500 30.747 C 284.653 30.740,283.047 29.490,281.940 26.422 C 281.818 26.082,281.730 21.785,281.671 13.250 L 281.583 0.583 276.319 0.539 L 271.056 0.495 270.861 0.922 M305.268 0.764 C 305.058 1.311,305.155 39.255,305.367 39.467 C 305.708 39.808,315.933 39.747,316.066 39.403 C 316.121 39.258,316.167 36.885,316.167 34.130 L 316.167 29.121 316.881 29.219 C 320.987 29.782,324.145 33.675,324.164 38.197 C 324.165 38.535,324.240 39.004,324.329 39.239 L 324.492 39.667 330.059 39.667 C 336.726 39.667,336.149 39.905,335.859 37.277 C 335.471 33.757,335.003 31.659,334.479 31.092 C 334.399 31.005,334.333 30.802,334.333 30.641 C 334.333 30.480,334.108 29.966,333.833 29.500 C 333.558 29.034,333.333 28.602,333.333 28.542 C 333.333 28.397,332.043 26.524,331.611 26.042 C 331.350 25.750,331.330 25.667,331.522 25.667 C 331.739 25.667,333.333 23.996,333.333 23.769 C 333.333 23.722,333.542 23.361,333.797 22.967 C 334.271 22.234,334.418 21.892,335.075 20.000 C 336.121 16.987,335.907 10.273,334.679 7.583 C 333.471 4.938,333.316 4.693,332.074 3.451 C 330.780 2.157,329.301 1.336,327.378 0.845 C 325.529 0.373,305.446 0.299,305.268 0.764 M350.119 2.049 C 349.778 2.901,349.500 3.690,349.500 3.801 C 349.500 3.913,349.429 4.135,349.341 4.294 C 349.065 4.799,348.689 5.714,348.265 6.917 C 348.039 7.558,347.633 8.683,347.363 9.417 C 347.093 10.150,346.611 11.463,346.292 12.333 C 345.973 13.204,345.589 14.207,345.439 14.562 C 345.289 14.917,345.167 15.305,345.167 15.425 C 345.167 15.545,344.942 16.130,344.667 16.724 C 344.392 17.318,344.167 17.921,344.167 18.064 C 344.167 18.207,343.971 18.757,343.731 19.287 C 343.491 19.817,343.158 20.662,342.989 21.167 C 342.452 22.776,341.731 24.719,341.275 25.787 C 341.032 26.357,340.833 26.929,340.833 27.057 C 340.833 27.186,340.670 27.657,340.471 28.104 C 340.272 28.551,339.907 29.479,339.660 30.167 C 339.413 30.854,338.970 32.054,338.677 32.833 C 338.383 33.612,338.005 34.662,337.836 35.167 C 337.668 35.671,337.373 36.446,337.182 36.889 C 336.219 39.114,336.342 39.167,342.543 39.167 L 347.642 39.167 347.988 38.728 C 348.178 38.486,348.333 38.155,348.333 37.992 C 348.333 37.829,348.596 37.083,348.917 36.333 C 349.238 35.584,349.500 34.884,349.500 34.779 C 349.500 34.673,349.631 34.267,349.792 33.876 L 350.083 33.164 356.160 33.207 L 362.236 33.250 362.342 33.750 C 362.401 34.025,362.685 34.802,362.974 35.476 C 363.263 36.150,363.503 36.825,363.507 36.976 C 363.511 37.127,363.722 37.662,363.976 38.167 L 364.439 39.083 369.559 39.127 C 376.018 39.183,375.968 39.209,374.817 36.361 C 374.533 35.658,374.187 34.708,374.050 34.250 C 373.912 33.792,373.740 33.342,373.667 33.250 C 373.594 33.158,373.421 32.708,373.282 32.250 C 373.143 31.792,372.798 30.863,372.515 30.185 C 372.232 29.508,372.000 28.859,372.000 28.743 C 372.000 28.626,371.775 28.030,371.500 27.417 C 371.225 26.804,371.001 26.216,371.002 26.109 C 371.004 26.003,370.752 25.279,370.443 24.500 C 369.878 23.078,369.556 22.203,368.970 20.500 C 368.797 19.996,368.587 19.433,368.503 19.250 C 367.925 17.979,367.667 17.320,367.667 17.114 C 367.667 16.983,367.452 16.360,367.190 15.730 C 366.928 15.099,366.580 14.208,366.417 13.750 C 366.254 13.292,365.914 12.354,365.662 11.667 C 365.409 10.979,365.002 9.854,364.757 9.167 C 364.280 7.828,363.914 6.926,363.659 6.461 C 363.571 6.301,363.500 6.052,363.500 5.906 C 363.500 5.760,363.246 5.028,362.937 4.279 C 362.627 3.530,362.277 2.598,362.160 2.209 C 362.043 1.820,361.810 1.276,361.643 1.000 L 361.338 0.500 356.038 0.500 L 350.737 0.500 350.119 2.049 M384.108 0.832 C 382.398 1.134,381.277 1.467,380.333 1.951 C 380.104 2.068,379.834 2.165,379.733 2.166 C 379.633 2.166,379.239 2.392,378.860 2.667 C 378.480 2.942,378.113 3.170,378.043 3.173 C 377.847 3.184,376.333 4.618,376.333 4.793 C 376.333 4.878,376.176 5.090,375.985 5.264 C 374.031 7.032,373.456 13.521,374.975 16.656 C 375.172 17.063,375.333 17.464,375.333 17.548 C 375.333 17.924,376.666 19.800,377.624 20.773 C 379.357 22.531,380.904 23.403,384.000 24.369 C 386.333 25.096,388.010 26.235,388.270 27.270 C 388.325 27.490,388.437 27.711,388.518 27.761 C 389.000 28.059,388.414 29.735,387.557 30.514 C 386.461 31.510,382.949 31.593,378.699 30.723 C 376.665 30.306,376.633 30.365,376.329 35.000 C 376.247 36.237,376.136 37.700,376.082 38.250 C 375.944 39.637,375.988 39.671,378.273 39.949 C 383.821 40.623,390.990 40.171,393.624 38.979 C 394.014 38.803,394.529 38.584,394.769 38.493 C 395.545 38.198,397.831 36.264,397.832 35.901 C 397.833 35.800,397.973 35.592,398.144 35.438 C 400.086 33.680,400.203 26.170,398.337 23.007 C 398.081 22.573,397.819 22.052,397.755 21.849 C 397.557 21.225,394.813 18.627,393.613 17.926 C 392.343 17.185,391.904 17.005,389.671 16.313 C 384.247 14.632,383.349 10.062,388.313 9.404 C 389.318 9.270,393.428 9.599,394.969 9.936 C 397.188 10.422,397.205 10.402,397.553 6.833 C 397.954 2.715,398.001 1.563,397.778 1.275 C 397.242 0.585,387.325 0.263,384.108 0.832 M55.528 3.408 C 57.195 3.761,59.329 4.468,60.113 4.926 C 60.496 5.150,60.927 5.333,61.071 5.333 C 61.215 5.333,61.333 5.392,61.333 5.465 C 61.333 5.537,61.731 5.837,62.217 6.132 C 62.982 6.595,65.252 8.673,66.000 9.594 C 66.338 10.010,67.667 12.030,67.667 12.127 C 67.667 12.170,67.929 12.766,68.250 13.451 C 68.571 14.136,68.833 14.790,68.833 14.905 C 68.833 15.020,68.986 15.707,69.172 16.432 C 70.158 20.266,69.288 25.353,67.100 28.549 C 66.862 28.897,66.667 29.239,66.667 29.310 C 66.667 29.380,66.442 29.653,66.167 29.917 C 65.892 30.180,65.667 30.466,65.667 30.552 C 65.667 30.749,63.138 33.161,62.927 33.164 C 62.842 33.166,62.617 33.311,62.427 33.487 C 61.753 34.114,59.657 35.172,57.884 35.779 L 56.083 36.395 52.917 36.395 L 49.750 36.395 47.871 35.762 C 46.837 35.414,45.749 34.965,45.454 34.765 C 45.158 34.564,44.781 34.349,44.615 34.285 C 43.464 33.844,40.895 31.573,39.636 29.882 C 39.240 29.351,38.860 28.892,38.792 28.861 C 38.723 28.831,38.667 28.696,38.667 28.563 C 38.667 28.429,38.518 28.117,38.335 27.868 C 35.929 24.589,35.683 16.684,37.865 12.756 C 37.965 12.577,38.213 12.117,38.416 11.735 C 41.484 5.965,49.406 2.110,55.528 3.408 M252.083 9.909 C 254.207 10.412,256.247 11.794,257.062 13.281 C 257.618 14.297,258.033 15.271,258.089 15.698 C 258.122 15.944,258.240 16.469,258.353 16.865 C 259.009 19.167,258.213 25.270,257.172 25.913 C 257.077 25.972,257.000 26.134,257.000 26.275 C 257.000 26.496,256.426 27.240,255.917 27.678 C 254.145 29.203,252.772 29.708,250.333 29.733 L 248.583 29.750 248.540 19.917 C 248.516 14.508,248.533 9.990,248.577 9.875 C 248.687 9.587,250.810 9.607,252.083 9.909 M322.932 11.113 C 325.458 13.114,325.098 17.197,322.274 18.579 C 321.428 18.993,321.296 19.007,318.822 18.963 L 316.250 18.917 316.205 14.692 L 316.161 10.468 319.212 10.526 L 322.264 10.583 322.932 11.113 M183.902 11.570 C 185.517 12.101,188.167 13.851,188.167 14.385 C 188.167 14.447,188.429 14.841,188.750 15.261 C 189.071 15.682,189.333 16.099,189.333 16.189 C 189.333 16.278,189.491 16.697,189.683 17.119 C 191.101 20.231,189.868 24.542,186.872 26.950 C 186.438 27.298,186.058 27.640,186.028 27.708 C 185.997 27.777,185.878 27.833,185.763 27.833 C 185.648 27.833,185.073 28.076,184.485 28.373 C 183.432 28.906,183.384 28.913,181.068 28.915 L 178.719 28.917 177.151 28.138 C 171.390 25.277,170.160 18.135,174.667 13.719 C 177.176 11.260,180.565 10.472,183.902 11.570 M357.000 19.412 C 357.000 19.529,357.195 20.066,357.434 20.604 C 357.672 21.143,358.002 22.015,358.166 22.542 L 358.465 23.500 356.149 23.500 C 353.453 23.500,353.539 23.584,354.310 21.730 C 354.572 21.099,354.877 20.321,354.988 20.000 C 355.696 17.953,355.888 17.389,355.952 17.167 C 356.024 16.917,357.000 19.009,357.000 19.412 M69.132 33.669 C 69.747 33.945,70.438 34.267,70.667 34.386 C 70.896 34.504,71.421 34.775,71.833 34.988 C 72.246 35.201,72.696 35.440,72.833 35.520 C 74.154 36.285,74.827 36.696,75.250 36.995 C 79.746 40.173,81.757 42.016,85.306 46.209 C 85.793 46.785,85.934 46.799,78.417 45.553 C 74.574 44.916,69.238 44.882,66.583 45.478 C 65.667 45.684,64.542 45.916,64.083 45.995 C 63.625 46.074,62.688 46.323,62.000 46.549 C 53.583 49.312,46.390 49.969,39.481 48.605 C 33.789 47.480,31.523 47.294,29.083 47.750 C 26.606 48.212,26.219 48.313,25.233 48.751 C 22.999 49.743,19.579 51.768,19.283 52.272 C 19.210 52.397,19.047 52.500,18.920 52.500 C 18.794 52.500,18.573 52.618,18.429 52.762 C 17.802 53.388,18.625 51.770,19.917 49.833 C 20.192 49.421,20.524 48.877,20.654 48.625 C 20.783 48.373,20.950 48.167,21.024 48.167 C 21.098 48.167,21.269 47.952,21.405 47.689 C 21.541 47.426,21.801 47.032,21.983 46.814 C 22.165 46.595,22.781 45.854,23.353 45.167 C 25.017 43.166,26.782 41.419,28.750 39.825 C 31.035 37.976,31.511 37.605,31.737 37.500 C 31.836 37.454,32.329 37.147,32.833 36.817 C 34.338 35.832,34.718 35.600,35.417 35.235 C 36.472 34.684,37.447 34.192,38.150 33.856 L 38.800 33.546 39.748 34.436 C 40.270 34.925,41.159 35.627,41.723 35.995 C 42.288 36.364,42.839 36.739,42.947 36.829 C 43.271 37.097,46.037 38.339,46.667 38.498 C 46.987 38.579,47.850 38.817,48.583 39.027 C 54.162 40.621,61.822 38.517,66.417 34.129 C 67.580 33.018,67.655 33.005,69.132 33.669 M79.309 48.671 C 81.110 48.959,83.971 49.451,85.667 49.764 C 87.362 50.078,88.900 50.333,89.083 50.333 C 90.859 50.326,96.678 52.111,97.865 53.026 C 98.204 53.287,98.544 53.500,98.621 53.500 C 98.861 53.500,101.167 55.930,101.167 56.183 C 101.167 56.256,101.392 56.650,101.667 57.057 C 101.942 57.465,102.167 57.854,102.167 57.923 C 102.167 58.484,103.427 61.152,103.876 61.542 C 104.556 62.132,106.178 62.188,107.500 61.667 C 109.139 61.021,110.266 61.366,111.433 62.872 C 111.791 63.334,112.290 63.929,112.542 64.195 C 113.117 64.801,113.141 64.737,112.208 65.074 C 111.442 65.350,110.061 65.891,108.167 66.657 C 107.662 66.861,106.912 67.141,106.500 67.278 C 106.087 67.415,105.188 67.738,104.500 67.995 C 101.972 68.939,95.916 70.667,95.133 70.667 C 94.890 70.667,94.132 70.443,93.449 70.169 C 92.765 69.895,91.915 69.628,91.561 69.576 C 91.207 69.523,90.467 69.410,89.917 69.325 C 88.428 69.093,85.777 69.134,83.881 69.418 C 82.382 69.642,81.687 69.834,80.583 70.332 C 80.400 70.415,79.856 70.645,79.375 70.845 C 78.894 71.044,78.500 71.267,78.500 71.340 C 78.500 71.413,78.318 71.535,78.094 71.611 C 75.387 72.538,73.022 77.423,73.846 80.389 C 74.002 80.951,73.981 81.070,73.673 81.389 C 73.481 81.587,72.804 82.357,72.168 83.100 C 69.619 86.081,67.169 86.694,64.083 85.124 C 60.961 83.535,59.758 83.804,57.583 86.575 C 56.841 87.521,55.701 88.662,55.461 88.700 C 55.345 88.718,54.073 88.737,52.635 88.741 L 50.020 88.750 49.413 89.333 C 48.478 90.232,48.435 90.389,48.317 93.333 C 48.191 96.502,47.718 98.174,46.499 99.748 C 44.522 102.304,41.414 103.949,39.911 103.236 C 39.311 102.951,37.667 101.395,37.667 101.111 C 37.666 100.804,34.580 97.505,33.197 96.333 C 30.427 93.986,29.920 92.727,30.858 90.528 C 31.502 89.019,30.849 87.428,29.440 87.074 C 29.056 86.978,29.034 86.900,28.966 85.362 C 28.887 83.571,28.292 81.971,27.319 80.933 C 27.053 80.649,26.835 80.372,26.834 80.317 C 26.834 80.262,26.413 79.887,25.899 79.483 C 25.385 79.080,24.879 78.670,24.774 78.573 C 24.669 78.476,23.946 78.086,23.167 77.706 C 17.841 75.108,10.730 75.509,5.897 78.679 C 5.639 78.849,5.388 78.926,5.339 78.852 C 5.290 78.777,4.802 78.469,4.254 78.165 C 3.192 77.578,2.794 77.261,2.938 77.118 C 3.191 76.865,4.028 72.074,4.325 69.178 C 4.537 67.110,5.264 65.989,7.441 64.376 C 8.400 63.665,9.476 62.858,9.831 62.583 C 10.186 62.308,10.864 61.821,11.338 61.500 C 11.812 61.179,12.446 60.710,12.747 60.458 C 13.048 60.206,13.346 60.000,13.411 60.000 C 13.475 60.000,13.840 59.752,14.222 59.450 C 14.604 59.147,15.197 58.716,15.541 58.492 C 15.884 58.267,16.165 58.027,16.166 57.958 C 16.166 57.890,16.279 57.833,16.417 57.833 C 16.554 57.833,16.805 57.695,16.974 57.526 C 17.292 57.208,18.915 56.067,19.551 55.714 C 19.752 55.603,20.179 55.284,20.500 55.006 C 20.821 54.728,21.148 54.501,21.226 54.500 C 21.304 54.500,21.653 54.275,22.000 54.000 C 22.347 53.725,22.679 53.500,22.736 53.500 C 22.794 53.500,23.199 53.256,23.637 52.958 C 27.253 50.497,31.069 49.895,36.126 50.988 C 44.943 52.894,52.921 52.510,61.750 49.753 C 67.928 47.823,72.320 47.553,79.309 48.671 M46.740 56.838 C 46.367 56.911,45.585 57.166,45.002 57.403 C 44.419 57.640,43.872 57.833,43.786 57.833 C 42.346 57.833,38.647 61.605,37.360 64.384 C 36.053 67.210,36.056 73.066,37.367 74.776 C 37.448 74.881,37.581 75.200,37.662 75.484 L 37.810 76.000 35.000 76.000 L 32.191 76.000 31.845 76.439 C 31.500 76.878,31.397 77.588,31.628 77.933 C 31.998 78.488,32.366 78.500,49.380 78.500 C 68.317 78.500,66.833 78.601,66.833 77.316 C 66.833 76.066,66.667 76.000,63.491 76.000 C 61.937 76.000,60.667 75.965,60.667 75.921 C 60.667 75.878,60.811 75.521,60.987 75.129 C 62.663 71.399,62.505 67.056,60.559 63.326 C 59.889 62.042,57.416 59.333,56.408 58.780 C 55.886 58.494,54.425 57.786,53.566 57.404 C 52.082 56.744,48.647 56.459,46.740 56.838 M52.392 59.832 C 58.916 61.892,61.593 69.916,57.633 75.542 L 57.311 76.000 49.150 76.000 C 41.530 76.000,40.982 75.981,40.882 75.708 C 40.823 75.548,40.598 75.181,40.381 74.893 C 38.453 72.326,38.523 66.446,40.509 64.157 C 40.687 63.951,40.833 63.722,40.833 63.648 C 40.833 63.486,43.347 61.000,43.510 61.000 C 43.573 61.000,43.988 60.794,44.433 60.542 C 46.602 59.312,49.834 59.024,52.392 59.832 M44.871 63.975 C 43.147 64.675,42.457 66.401,43.047 68.541 C 43.294 69.439,48.893 75.333,49.498 75.333 C 50.073 75.333,55.288 69.883,55.731 68.819 C 57.315 65.017,53.147 61.910,50.126 64.640 L 49.486 65.218 48.951 64.717 C 47.874 63.707,46.255 63.412,44.871 63.975 M91.144 72.571 C 92.002 72.803,93.043 73.182,93.457 73.413 C 93.870 73.644,94.273 73.833,94.352 73.833 C 95.405 73.833,97.707 76.862,97.801 78.373 C 98.164 84.203,87.817 87.580,80.675 83.961 C 79.637 83.435,78.859 82.859,78.046 82.013 C 72.995 76.756,82.169 70.143,91.144 72.571 M19.417 79.410 C 19.875 79.551,20.400 79.738,20.583 79.826 C 20.767 79.913,21.212 80.103,21.573 80.247 C 27.659 82.677,27.296 88.763,20.911 91.327 C 17.614 92.651,10.973 92.529,9.563 91.119 C 9.498 91.053,9.341 91.000,9.214 91.000 C 7.469 91.000,4.427 87.028,4.771 85.197 C 5.117 83.354,7.975 80.167,9.282 80.167 C 9.370 80.167,9.924 79.968,10.513 79.726 C 12.342 78.973,17.409 78.793,19.417 79.410 " stroke="none" fill="#2cb4ac" fill-rule="evenodd"></path><path id="path1" d="M143.500 44.163 C 141.196 44.687,139.682 45.135,138.708 45.581 C 138.205 45.811,137.702 46.000,137.592 46.000 C 137.481 46.000,137.059 46.213,136.654 46.473 C 136.248 46.734,135.552 47.165,135.106 47.432 C 134.660 47.698,134.170 47.992,134.017 48.083 C 132.632 48.916,128.000 53.603,128.000 54.172 C 128.000 54.259,127.737 54.674,127.417 55.095 C 127.096 55.515,126.833 55.956,126.833 56.074 C 126.833 56.192,126.695 56.467,126.526 56.686 C 126.357 56.904,126.081 57.458,125.914 57.917 C 125.746 58.375,125.559 58.825,125.498 58.917 C 125.089 59.532,124.341 62.379,123.987 64.667 C 123.487 67.898,124.216 73.876,125.412 76.356 C 125.644 76.836,125.833 77.324,125.833 77.441 C 125.833 77.557,126.058 78.034,126.333 78.500 C 126.608 78.966,126.833 79.393,126.833 79.447 C 126.833 79.649,128.712 82.333,128.854 82.333 C 128.934 82.333,129.000 82.427,129.000 82.542 C 129.000 82.825,131.988 85.844,133.000 86.583 C 138.588 90.667,144.958 92.375,151.000 91.412 C 151.871 91.273,152.996 91.094,153.500 91.015 C 155.765 90.657,162.333 87.528,162.333 86.806 C 162.333 86.729,162.420 86.667,162.526 86.667 C 162.726 86.667,165.366 84.370,165.482 84.094 C 165.519 84.009,165.802 83.706,166.112 83.422 C 166.936 82.667,167.037 81.836,166.380 81.216 C 165.361 80.256,164.018 79.167,163.853 79.167 C 163.760 79.167,163.620 79.053,163.542 78.915 C 163.465 78.776,163.168 78.495,162.883 78.290 C 161.835 77.535,159.344 75.569,157.861 74.326 C 157.215 73.785,156.756 73.914,155.674 74.937 C 155.128 75.453,154.510 75.992,154.300 76.136 C 154.089 76.280,153.878 76.453,153.830 76.521 C 153.519 76.967,150.721 78.051,149.357 78.255 C 146.672 78.656,142.820 77.712,141.599 76.353 C 141.425 76.159,141.200 75.995,141.099 75.989 C 140.782 75.969,138.851 73.625,138.321 72.615 C 136.201 68.582,136.957 63.625,140.192 60.330 C 144.456 55.990,150.825 55.953,155.417 60.242 C 156.525 61.277,156.947 61.460,157.526 61.157 C 158.049 60.883,160.049 59.313,160.217 59.046 C 160.290 58.929,160.431 58.833,160.530 58.833 C 160.629 58.833,161.019 58.568,161.396 58.243 C 161.774 57.918,162.196 57.557,162.333 57.441 C 162.471 57.324,163.071 56.862,163.667 56.413 C 164.262 55.964,164.988 55.379,165.278 55.112 C 165.569 54.846,165.976 54.543,166.183 54.439 C 166.600 54.230,166.873 53.465,166.731 52.902 C 166.643 52.548,163.577 49.456,162.580 48.714 C 160.409 47.100,157.283 45.454,155.542 45.009 C 155.198 44.921,154.204 44.648,153.333 44.403 C 151.137 43.784,145.744 43.652,143.500 44.163 M184.167 44.157 C 183.387 44.330,182.412 44.589,182.000 44.733 C 181.588 44.877,181.119 44.996,180.960 44.998 C 180.672 45.000,178.711 45.785,177.750 46.282 C 176.310 47.028,175.441 47.542,175.124 47.837 C 174.929 48.019,174.704 48.167,174.622 48.167 C 173.415 48.167,166.667 56.066,166.667 57.479 C 166.667 57.572,166.482 57.997,166.255 58.422 C 165.009 60.767,164.473 63.820,164.544 68.167 C 164.606 71.875,164.633 72.159,165.062 73.500 C 165.311 74.279,165.583 75.179,165.666 75.500 C 166.005 76.814,168.355 81.333,168.698 81.333 C 168.773 81.333,168.833 81.430,168.833 81.549 C 168.833 81.929,173.342 86.667,173.704 86.667 C 173.796 86.667,174.106 86.858,174.394 87.092 C 175.145 87.704,176.604 88.624,177.042 88.763 C 177.248 88.829,177.679 89.044,178.000 89.242 C 179.902 90.418,184.383 91.492,187.917 91.620 C 190.011 91.696,190.651 91.634,194.394 90.991 C 196.343 90.656,199.666 89.242,201.815 87.833 C 204.350 86.172,203.942 86.504,206.000 84.421 C 208.009 82.387,209.420 80.541,209.743 79.523 C 209.805 79.327,209.913 79.167,209.983 79.167 C 210.053 79.167,210.285 78.773,210.498 78.292 C 210.712 77.810,211.038 77.085,211.223 76.679 C 211.606 75.836,212.021 74.414,212.517 72.250 C 213.049 69.921,212.915 64.218,212.278 62.122 C 212.033 61.319,211.833 60.554,211.833 60.422 C 211.833 60.162,210.806 57.674,210.420 57.000 C 210.289 56.771,209.960 56.166,209.688 55.657 C 209.416 55.147,209.075 54.632,208.930 54.511 C 208.785 54.391,208.667 54.222,208.667 54.136 C 208.667 53.888,206.468 51.331,205.468 50.417 C 204.238 49.292,202.878 48.167,202.750 48.167 C 202.692 48.167,202.406 47.988,202.114 47.771 C 201.058 46.982,197.616 45.326,196.376 45.009 C 196.032 44.921,195.037 44.648,194.167 44.402 C 191.990 43.788,186.438 43.652,184.167 44.157 M303.789 44.006 C 299.900 44.661,295.526 46.591,292.388 49.039 C 290.983 50.135,287.167 54.445,287.167 54.936 C 287.167 54.984,286.955 55.337,286.696 55.720 C 283.036 61.131,282.502 71.032,285.525 77.419 C 285.786 77.971,286.000 78.479,286.000 78.548 C 286.000 78.718,286.885 80.069,287.042 80.139 C 287.110 80.169,287.167 80.309,287.167 80.449 C 287.167 80.590,287.355 80.940,287.586 81.227 C 287.817 81.515,288.427 82.275,288.941 82.917 C 290.273 84.578,293.708 87.667,294.224 87.667 C 294.318 87.667,294.550 87.812,294.739 87.989 C 295.116 88.342,297.357 89.498,298.417 89.887 C 298.783 90.021,299.533 90.296,300.083 90.498 C 301.112 90.877,301.504 90.959,304.500 91.431 C 309.436 92.207,316.043 90.815,320.133 88.136 C 320.528 87.878,320.912 87.667,320.988 87.667 C 321.064 87.667,321.229 87.542,321.355 87.390 C 321.480 87.237,321.797 86.982,322.058 86.823 C 322.803 86.369,325.135 84.197,325.851 83.291 C 326.824 82.060,326.651 81.399,325.076 80.333 C 324.470 79.923,321.694 77.702,320.396 76.589 C 320.019 76.265,319.625 76.000,319.521 76.000 C 319.418 76.000,319.333 75.942,319.333 75.871 C 319.333 75.624,317.004 74.000,316.650 74.000 C 316.454 74.000,315.984 74.310,315.605 74.689 C 311.423 78.875,304.749 79.635,301.201 76.329 C 301.006 76.148,300.790 76.000,300.719 76.000 C 300.323 76.000,298.072 73.029,297.689 72.000 C 296.774 69.546,296.799 69.686,296.871 67.419 C 296.946 65.028,297.411 63.495,298.562 61.833 C 299.085 61.079,301.308 58.833,301.532 58.833 C 301.598 58.833,301.919 58.652,302.245 58.431 C 304.188 57.112,307.841 56.695,310.419 57.497 C 312.399 58.114,313.635 58.883,315.444 60.625 C 316.430 61.575,317.050 61.542,318.250 60.477 C 319.050 59.767,319.992 59.005,321.000 58.254 C 321.596 57.810,322.233 57.312,322.417 57.147 C 323.458 56.211,324.142 55.667,324.275 55.667 C 324.358 55.667,324.544 55.535,324.688 55.375 C 324.832 55.215,325.299 54.798,325.725 54.450 C 326.994 53.413,326.870 53.078,324.257 50.484 C 323.527 49.759,322.833 49.167,322.715 49.167 C 322.597 49.167,322.500 49.090,322.500 48.997 C 322.500 48.630,319.281 46.708,316.792 45.588 C 313.601 44.153,307.402 43.398,303.789 44.006 M214.276 44.805 C 214.022 45.085,214.000 46.897,214.000 67.462 L 214.000 89.814 214.370 90.074 C 214.931 90.466,226.346 90.464,226.738 90.071 C 226.971 89.838,227.000 88.461,227.003 77.446 C 227.006 63.368,226.830 64.258,228.824 68.250 C 229.007 68.617,229.384 69.254,229.661 69.667 C 229.938 70.079,230.166 70.481,230.166 70.559 C 230.166 70.638,230.392 71.035,230.667 71.443 C 230.942 71.850,231.167 72.260,231.167 72.353 C 231.167 72.447,231.379 72.837,231.639 73.220 C 231.899 73.603,232.229 74.142,232.371 74.417 C 233.150 75.918,233.707 76.910,234.081 77.461 C 234.311 77.800,234.500 78.142,234.500 78.221 C 234.500 78.300,234.645 78.569,234.822 78.817 C 235.108 79.219,235.682 80.245,236.462 81.750 C 236.605 82.025,236.934 82.564,237.194 82.947 C 237.454 83.330,237.667 83.736,237.667 83.850 C 237.667 83.964,237.771 84.175,237.898 84.320 C 238.025 84.465,238.352 84.996,238.626 85.500 C 238.899 86.004,239.431 86.942,239.807 87.583 C 240.183 88.225,240.605 88.989,240.743 89.281 C 241.252 90.353,241.123 90.333,247.775 90.333 L 253.809 90.333 254.155 89.894 L 254.500 89.455 254.500 67.342 C 254.500 45.319,254.499 45.228,254.160 44.865 C 253.673 44.342,242.080 44.285,241.610 44.803 C 241.362 45.078,241.332 46.173,241.293 56.262 L 241.250 67.417 240.686 66.417 C 240.375 65.867,240.075 65.379,240.019 65.333 C 239.963 65.287,239.804 65.051,239.667 64.807 C 239.440 64.406,238.527 62.925,237.538 61.352 C 237.330 61.021,237.074 60.581,236.970 60.375 C 236.865 60.169,236.717 60.000,236.640 60.000 C 236.563 60.000,236.500 59.901,236.500 59.780 C 236.500 59.659,236.277 59.265,236.005 58.905 C 235.732 58.545,235.507 58.184,235.505 58.103 C 235.502 58.023,235.237 57.591,234.917 57.145 C 234.596 56.698,234.333 56.229,234.333 56.103 C 234.333 55.977,234.225 55.784,234.092 55.674 C 233.959 55.563,233.611 55.048,233.319 54.528 C 233.027 54.008,232.737 53.546,232.675 53.500 C 232.612 53.454,232.320 53.004,232.025 52.500 C 231.283 51.231,231.134 50.989,230.741 50.417 C 230.553 50.142,230.184 49.542,229.922 49.083 C 229.660 48.625,229.394 48.212,229.332 48.167 C 229.269 48.121,229.113 47.885,228.984 47.642 C 228.207 46.178,227.423 44.965,227.115 44.749 C 226.517 44.330,214.659 44.382,214.276 44.805 M255.776 44.805 C 255.326 45.302,255.354 89.650,255.805 90.058 C 256.083 90.309,257.299 90.333,269.859 90.333 L 283.609 90.333 283.971 89.948 C 284.453 89.434,284.545 80.209,284.074 79.537 L 283.814 79.167 276.157 79.167 L 268.500 79.167 268.500 76.089 L 268.500 73.011 275.180 72.964 C 281.571 72.919,281.871 72.903,282.097 72.593 C 282.524 72.008,282.437 62.604,282.000 62.167 C 281.678 61.845,281.444 61.833,275.083 61.833 L 268.500 61.833 268.500 58.750 L 268.500 55.667 276.157 55.667 L 283.814 55.667 284.074 55.296 C 284.500 54.688,284.459 45.165,284.029 44.776 C 283.533 44.327,256.183 44.355,255.776 44.805 M327.873 44.831 C 327.496 45.435,327.585 55.041,327.971 55.391 C 328.241 55.635,328.865 55.667,333.388 55.667 L 338.500 55.667 338.500 72.741 L 338.500 89.814 338.870 90.074 C 339.526 90.533,350.633 90.456,351.228 89.988 L 351.667 89.642 351.667 72.655 L 351.667 55.667 356.800 55.667 C 360.570 55.667,361.986 55.614,362.133 55.467 C 362.280 55.320,362.333 53.893,362.333 50.083 C 362.333 46.274,362.280 44.847,362.133 44.700 C 361.729 44.296,328.128 44.424,327.873 44.831 M370.950 44.889 C 370.616 45.399,370.217 46.336,369.802 47.583 C 369.620 48.133,369.368 48.808,369.244 49.083 C 369.119 49.358,368.873 49.996,368.696 50.500 C 368.519 51.004,368.113 52.129,367.794 53.000 C 367.475 53.871,367.080 54.958,366.916 55.417 C 366.752 55.875,366.414 56.775,366.165 57.417 C 365.916 58.058,365.617 58.883,365.502 59.250 C 365.386 59.617,365.153 60.206,364.986 60.559 C 364.818 60.912,364.558 61.624,364.408 62.142 C 364.258 62.660,364.075 63.158,364.001 63.250 C 363.928 63.342,363.757 63.793,363.621 64.252 C 363.486 64.711,363.141 65.638,362.854 66.311 C 362.568 66.984,362.333 67.633,362.333 67.752 C 362.333 67.871,362.108 68.470,361.833 69.083 C 361.558 69.696,361.333 70.297,361.333 70.417 C 361.333 70.538,361.083 71.225,360.776 71.944 C 360.470 72.662,360.164 73.475,360.097 73.750 C 360.029 74.025,359.870 74.475,359.742 74.750 C 359.614 75.025,359.324 75.775,359.098 76.417 C 358.327 78.598,357.721 80.248,357.385 81.083 C 357.201 81.542,356.916 82.292,356.753 82.750 C 356.434 83.646,355.491 86.228,354.987 87.583 C 354.602 88.620,354.576 89.719,354.929 90.071 C 355.232 90.375,366.760 90.474,367.314 90.177 C 367.603 90.022,368.637 87.539,370.043 83.625 L 370.207 83.167 377.323 83.167 L 384.438 83.167 384.719 83.756 C 384.874 84.080,385.000 84.448,385.000 84.573 C 385.000 84.699,385.225 85.304,385.500 85.917 C 385.775 86.530,386.000 87.129,386.000 87.249 C 386.000 87.584,386.917 89.656,387.224 90.014 C 387.540 90.384,399.008 90.519,399.678 90.161 C 400.157 89.904,400.117 88.472,399.596 87.296 C 399.375 86.794,399.109 86.070,399.005 85.686 C 398.902 85.303,398.596 84.511,398.325 83.926 C 398.055 83.341,397.833 82.744,397.833 82.600 C 397.833 82.455,397.619 81.829,397.358 81.210 C 397.096 80.590,396.748 79.708,396.584 79.250 C 396.419 78.792,396.063 77.817,395.793 77.083 C 395.522 76.350,395.089 75.150,394.831 74.417 C 394.573 73.683,394.199 72.708,394.000 72.250 C 393.800 71.792,393.499 71.004,393.330 70.500 C 393.162 69.996,392.784 68.946,392.490 68.167 C 392.197 67.387,391.754 66.188,391.507 65.500 C 391.260 64.813,390.894 63.884,390.695 63.437 C 390.496 62.990,390.333 62.514,390.333 62.379 C 390.333 62.244,390.071 61.528,389.750 60.787 C 389.429 60.047,389.167 59.341,389.167 59.219 C 389.167 59.096,389.018 58.678,388.837 58.290 C 388.656 57.901,388.319 57.040,388.087 56.375 C 387.856 55.710,387.477 54.623,387.246 53.958 C 387.015 53.294,386.710 52.487,386.568 52.167 C 386.232 51.406,386.109 51.088,385.758 50.083 C 384.911 47.656,384.344 46.164,383.984 45.417 L 383.583 44.583 377.395 44.540 L 371.208 44.496 370.950 44.889 M192.032 57.564 C 196.513 59.052,199.465 63.101,199.493 67.799 C 199.507 70.261,198.621 72.596,196.916 74.593 C 192.277 80.023,182.755 79.384,179.459 73.421 C 179.344 73.212,179.112 72.798,178.943 72.500 C 175.514 66.443,179.320 59.095,186.917 57.106 C 187.786 56.878,190.772 57.146,192.032 57.564 M377.994 65.750 C 378.197 66.208,378.501 66.996,378.669 67.500 C 378.837 68.004,379.241 69.129,379.568 70.000 C 379.895 70.871,380.163 71.602,380.164 71.625 C 380.166 71.648,378.892 71.667,377.333 71.667 C 375.775 71.667,374.500 71.627,374.500 71.578 C 374.500 71.530,374.688 71.044,374.917 70.500 C 375.146 69.956,375.334 69.414,375.334 69.297 C 375.335 69.179,375.439 68.885,375.565 68.643 C 375.692 68.401,375.957 67.726,376.154 67.143 C 376.968 64.743,377.396 63.889,377.516 64.429 C 377.575 64.697,377.790 65.292,377.994 65.750 " stroke="none" fill="#f4941c" fill-rule="evenodd"></path><path id="path2" d="M184.757 95.320 C 184.619 95.587,184.320 96.356,184.093 97.028 C 183.865 97.700,183.373 99.075,182.998 100.083 C 182.623 101.092,182.104 102.517,181.844 103.250 C 181.585 103.983,181.222 104.958,181.038 105.417 C 180.533 106.678,180.647 107.000,181.600 107.000 C 182.188 107.000,182.516 106.667,182.748 105.833 C 182.812 105.604,183.092 104.835,183.370 104.125 L 183.876 102.833 185.348 102.833 L 186.820 102.833 187.060 103.625 C 187.823 106.149,188.265 106.913,188.990 106.968 C 189.791 107.029,189.979 106.758,189.700 105.944 C 189.296 104.765,188.662 102.991,188.082 101.417 C 186.637 97.500,186.291 96.543,186.067 95.842 C 185.707 94.718,185.177 94.507,184.757 95.320 M223.994 95.177 C 223.893 95.367,223.780 95.679,223.743 95.871 C 223.706 96.063,223.449 96.765,223.171 97.432 C 222.894 98.098,222.667 98.728,222.667 98.831 C 222.667 98.934,222.510 99.362,222.319 99.782 C 222.127 100.202,221.801 101.042,221.592 101.648 C 221.384 102.254,220.936 103.524,220.597 104.470 C 219.826 106.620,219.846 106.899,220.776 106.967 L 221.469 107.018 221.984 105.681 C 222.268 104.946,222.500 104.269,222.500 104.178 C 222.500 104.086,222.626 103.746,222.781 103.422 L 223.062 102.833 224.490 102.833 L 225.918 102.833 226.327 103.875 C 226.552 104.448,226.889 105.367,227.077 105.917 L 227.417 106.917 228.167 106.917 L 228.917 106.917 228.898 106.299 C 228.888 105.960,228.653 105.098,228.375 104.383 C 227.849 103.028,227.100 101.009,226.595 99.583 C 226.433 99.125,226.035 98.000,225.712 97.083 C 224.938 94.891,224.442 94.340,223.994 95.177 M312.370 95.042 C 312.277 95.156,311.885 96.112,311.499 97.167 C 311.114 98.221,310.535 99.796,310.213 100.667 C 307.822 107.125,307.846 107.000,309.001 107.000 C 309.767 107.000,309.889 106.804,310.794 104.125 L 311.230 102.833 312.678 102.833 L 314.126 102.833 314.487 103.673 C 314.686 104.135,314.995 104.989,315.175 105.570 C 315.557 106.809,315.783 107.042,316.531 106.970 C 317.333 106.893,317.213 104.992,316.327 103.750 C 316.261 103.658,316.093 103.208,315.953 102.750 C 315.813 102.292,315.422 101.167,315.084 100.250 C 314.747 99.333,314.263 97.980,314.008 97.243 C 313.227 94.983,312.842 94.465,312.370 95.042 M383.927 95.211 C 383.687 95.577,383.078 97.169,382.063 100.083 C 381.576 101.480,380.969 103.125,380.300 104.862 C 379.634 106.588,379.692 106.917,380.659 106.917 L 381.402 106.917 381.792 105.833 C 382.007 105.237,382.337 104.316,382.525 103.786 L 382.868 102.821 384.364 102.869 L 385.861 102.917 386.248 104.000 C 387.362 107.121,387.283 106.993,388.119 106.997 C 388.931 107.001,389.051 106.603,388.595 105.410 C 388.387 104.864,387.977 103.742,387.684 102.917 C 384.881 95.007,384.531 94.289,383.927 95.211 M129.000 95.157 C 125.733 95.819,123.889 99.245,124.741 103.068 C 124.847 103.541,126.115 105.500,126.316 105.500 C 126.371 105.500,126.642 105.697,126.917 105.938 C 129.221 107.956,135.850 106.877,134.477 104.708 C 134.066 104.059,133.817 104.035,133.107 104.576 C 130.941 106.229,127.520 105.254,126.512 102.697 C 124.870 98.531,129.480 95.028,133.206 97.611 L 133.841 98.051 134.254 97.663 C 134.704 97.240,134.785 96.757,134.458 96.441 C 133.253 95.273,131.019 94.747,129.000 95.157 M139.667 95.147 C 138.131 95.481,136.724 96.690,135.711 98.546 C 135.194 99.493,135.288 102.865,135.859 103.835 C 138.441 108.228,144.350 108.226,146.750 103.832 C 148.402 100.807,146.477 95.969,143.328 95.232 C 142.626 95.068,140.280 95.013,139.667 95.147 M169.333 95.048 C 169.287 95.094,168.983 95.167,168.656 95.210 C 167.535 95.358,166.083 96.364,165.254 97.567 C 163.134 100.645,164.329 105.041,167.718 106.634 C 170.310 107.853,175.651 106.164,174.175 104.592 C 173.679 104.065,173.426 104.059,172.829 104.561 C 171.268 105.875,168.559 105.607,167.110 103.995 C 163.689 100.189,168.042 94.893,172.549 97.377 L 173.681 98.002 174.091 97.560 C 174.316 97.317,174.500 97.030,174.500 96.921 C 174.500 96.497,172.841 95.358,172.040 95.232 C 171.089 95.082,169.413 94.968,169.333 95.048 M231.417 95.327 C 230.339 95.889,230.083 96.375,230.083 97.864 C 230.083 99.441,230.438 99.911,232.277 100.771 C 234.444 101.785,235.096 102.705,234.625 104.083 C 233.989 105.944,231.396 105.759,230.742 103.807 C 230.327 102.568,228.768 103.234,229.144 104.489 C 230.121 107.750,234.923 107.959,236.242 104.797 C 237.082 102.783,235.683 100.105,233.471 99.494 C 231.989 99.084,231.194 97.699,232.026 96.978 C 232.547 96.526,233.097 96.591,233.610 97.167 C 234.449 98.109,235.785 97.564,235.272 96.489 C 234.663 95.214,232.743 94.635,231.417 95.327 M256.234 95.224 C 252.015 96.302,250.442 101.852,253.422 105.150 C 255.353 107.288,258.868 107.701,261.375 106.083 C 262.357 105.450,262.416 105.290,261.895 104.671 C 261.422 104.109,260.989 104.029,260.648 104.439 C 259.092 106.314,254.957 105.265,253.896 102.726 C 252.314 98.940,257.242 94.877,260.333 97.418 C 260.986 97.955,261.283 98.004,261.732 97.651 C 262.550 97.008,262.072 96.279,260.223 95.352 C 259.640 95.059,257.186 94.980,256.234 95.224 M267.667 95.050 C 267.621 95.097,267.283 95.181,266.917 95.238 C 264.571 95.600,262.565 98.504,262.705 101.333 C 263.015 107.617,271.634 109.331,274.266 103.632 C 275.800 100.310,273.900 96.060,270.500 95.208 C 270.037 95.092,267.751 94.965,267.667 95.050 M296.041 95.176 C 293.627 95.652,291.578 98.385,291.595 101.106 C 291.623 105.874,297.018 108.730,301.081 106.129 C 302.050 105.508,302.164 105.136,301.559 104.575 C 301.007 104.064,301.007 104.064,300.068 104.659 C 297.357 106.378,293.793 104.823,293.410 101.753 C 292.893 97.617,297.176 95.241,300.610 97.757 C 300.949 98.005,301.003 97.993,301.496 97.552 C 303.005 96.204,299.211 94.551,296.041 95.176 M353.718 95.107 C 353.199 95.221,352.221 96.364,351.994 97.121 C 351.553 98.594,352.372 99.839,354.464 100.876 C 357.093 102.179,357.648 103.980,355.760 105.087 C 354.395 105.886,353.148 105.237,352.591 103.438 C 352.480 103.078,351.601 103.161,351.192 103.570 C 350.729 104.033,351.576 105.691,352.686 106.495 C 353.457 107.053,355.673 107.225,356.434 106.786 C 359.502 105.013,358.938 100.599,355.500 99.477 C 354.528 99.159,353.667 98.380,353.667 97.819 C 353.667 96.702,354.867 96.310,355.667 97.167 C 356.554 98.116,357.780 97.557,357.252 96.444 C 356.726 95.336,355.235 94.772,353.718 95.107 M362.886 95.238 C 357.518 96.539,357.251 104.898,362.518 106.756 C 366.569 108.186,370.750 105.304,370.750 101.083 C 370.750 96.867,367.163 94.201,362.886 95.238 M391.333 95.280 C 391.012 95.419,390.692 95.634,390.621 95.758 C 390.551 95.882,390.365 96.111,390.209 96.268 C 390.015 96.461,389.905 96.900,389.864 97.651 C 389.780 99.194,390.293 99.892,392.205 100.833 C 393.935 101.685,394.669 102.419,394.661 103.289 C 394.637 105.807,391.202 106.191,390.534 103.750 C 390.285 102.839,389.000 103.059,389.000 104.013 C 389.000 106.806,393.221 108.123,395.283 105.973 C 397.379 103.787,396.515 101.095,393.173 99.397 C 391.392 98.492,391.077 97.996,391.765 97.179 C 392.324 96.515,392.888 96.511,393.500 97.167 C 394.011 97.714,394.263 97.768,394.919 97.469 C 395.271 97.308,395.334 97.192,395.250 96.858 C 394.879 95.381,392.921 94.592,391.333 95.280 M148.375 95.277 C 148.214 95.342,148.167 96.644,148.167 100.993 C 148.167 107.200,148.144 107.071,149.197 106.970 L 149.750 106.917 149.833 102.875 L 149.917 98.833 150.601 100.041 C 154.549 107.008,154.564 107.030,155.319 106.967 L 155.917 106.917 155.960 101.032 L 156.004 95.147 155.294 95.199 L 154.583 95.250 154.500 99.250 L 154.417 103.250 154.042 102.615 C 153.835 102.266,153.667 101.947,153.667 101.906 C 153.667 101.864,153.250 101.137,152.740 100.290 C 151.644 98.470,151.733 98.624,150.738 96.833 C 149.792 95.134,149.389 94.868,148.375 95.277 M157.103 95.427 C 156.871 96.030,156.990 106.617,157.230 106.817 C 157.389 106.949,158.383 106.994,160.438 106.962 L 163.417 106.917 163.417 106.167 L 163.417 105.417 161.125 105.370 L 158.833 105.324 158.833 103.579 L 158.833 101.833 161.167 101.833 L 163.500 101.833 163.500 101.200 C 163.500 100.226,163.355 100.167,160.967 100.167 L 158.833 100.167 158.833 98.505 L 158.833 96.843 161.125 96.796 L 163.417 96.750 163.417 96.000 L 163.417 95.250 160.311 95.205 C 157.588 95.165,157.192 95.192,157.103 95.427 M174.537 95.363 C 173.796 96.104,174.529 96.833,176.012 96.833 L 177.167 96.833 177.167 101.730 C 177.167 107.129,177.155 107.070,178.197 106.970 L 178.750 106.917 178.794 101.875 L 178.838 96.833 180.065 96.833 C 181.464 96.833,181.719 96.666,181.636 95.803 L 181.583 95.250 178.162 95.205 C 175.641 95.172,174.686 95.214,174.537 95.363 M190.245 95.369 C 190.200 95.488,190.182 98.135,190.206 101.251 L 190.250 106.917 191.000 106.917 L 191.750 106.917 191.797 105.125 L 191.845 103.333 192.396 103.333 C 193.041 103.333,193.138 103.433,194.332 105.333 C 195.365 106.977,195.384 106.994,196.208 106.997 C 197.302 107.002,197.113 106.331,195.230 103.513 C 194.846 102.939,194.845 102.667,195.226 102.667 C 195.575 102.667,196.603 101.457,196.892 100.705 C 197.623 98.810,196.942 96.757,195.223 95.667 C 194.376 95.130,190.428 94.893,190.245 95.369 M202.438 95.422 C 202.230 95.962,202.320 106.586,202.533 106.800 C 202.905 107.172,203.981 107.051,204.085 106.625 C 204.135 106.419,204.155 103.775,204.130 100.750 L 204.083 95.250 203.313 95.200 C 202.723 95.162,202.518 95.214,202.438 95.422 M205.373 101.017 L 205.417 106.917 206.924 106.897 C 214.618 106.797,214.680 95.633,206.989 95.209 L 205.329 95.118 205.373 101.017 M213.411 95.372 C 213.366 95.490,213.349 98.135,213.373 101.251 L 213.417 106.917 216.583 106.917 L 219.750 106.917 219.750 106.167 L 219.750 105.417 217.375 105.370 L 215.000 105.324 215.000 103.583 L 215.000 101.842 217.375 101.796 L 219.750 101.750 219.803 101.197 C 219.895 100.240,219.712 100.167,217.230 100.167 L 215.000 100.167 215.000 98.500 L 215.000 96.833 217.230 96.833 C 219.712 96.833,219.895 96.760,219.803 95.803 L 219.750 95.250 216.621 95.205 C 214.201 95.170,213.474 95.208,213.411 95.372 M275.746 95.366 C 275.700 95.487,275.682 98.135,275.706 101.251 L 275.750 106.917 276.142 106.972 C 276.358 107.003,276.714 106.982,276.934 106.927 L 277.333 106.827 277.334 102.872 L 277.335 98.917 277.693 99.500 C 278.253 100.414,280.333 103.994,280.839 104.917 C 281.799 106.665,281.927 106.845,282.275 106.935 C 282.472 106.986,282.809 107.003,283.025 106.972 L 283.417 106.917 283.417 101.083 L 283.417 95.250 282.667 95.250 L 281.917 95.250 281.867 99.250 C 281.817 103.223,281.815 103.246,281.516 102.667 C 281.351 102.346,280.667 101.146,279.996 100.000 C 279.326 98.854,278.637 97.654,278.466 97.333 C 277.482 95.490,277.266 95.253,276.530 95.199 C 276.066 95.165,275.802 95.221,275.746 95.366 M284.577 95.372 C 284.532 95.490,284.515 98.135,284.539 101.251 L 284.583 106.917 287.704 106.962 L 290.825 107.007 290.926 106.604 C 291.216 105.451,291.159 105.421,288.542 105.370 L 286.167 105.324 286.167 103.583 L 286.167 101.842 288.542 101.796 L 290.917 101.750 290.970 101.197 C 291.062 100.240,290.879 100.167,288.396 100.167 L 286.167 100.167 286.167 98.500 L 286.167 96.833 288.375 96.831 C 290.926 96.828,291.042 96.786,290.970 95.900 L 290.917 95.250 287.788 95.205 C 285.368 95.170,284.641 95.208,284.577 95.372 M302.037 95.363 C 301.309 96.091,301.966 96.833,303.339 96.833 L 304.500 96.833 304.500 101.594 C 304.500 106.733,304.541 107.000,305.326 107.000 C 306.387 107.000,306.333 107.278,306.333 101.823 L 306.333 96.847 307.625 96.799 L 308.917 96.750 308.917 96.000 L 308.917 95.250 305.578 95.205 C 303.122 95.172,302.186 95.214,302.037 95.363 M317.623 95.266 C 317.476 95.413,317.455 106.356,317.601 106.736 C 317.672 106.920,317.919 107.000,318.417 107.000 C 319.301 107.000,319.333 106.926,319.333 104.903 L 319.333 103.333 319.889 103.333 C 320.482 103.333,320.493 103.347,322.233 106.042 C 322.829 106.966,322.877 107.000,323.574 107.000 C 324.778 107.000,324.753 106.732,323.348 104.583 C 322.264 102.926,322.260 102.909,322.894 102.535 C 325.222 101.162,325.212 97.615,322.875 95.833 L 322.110 95.250 319.928 95.196 C 318.728 95.167,317.691 95.198,317.623 95.266 M329.867 95.367 C 329.719 95.514,329.667 97.018,329.667 101.096 C 329.667 107.190,329.646 107.071,330.697 106.970 L 331.250 106.917 331.297 105.149 L 331.344 103.381 332.500 103.284 C 337.040 102.903,338.398 97.516,334.465 95.486 C 333.723 95.103,330.221 95.012,329.867 95.367 M337.204 95.363 C 336.914 95.653,336.911 106.511,337.200 106.800 C 337.340 106.940,338.274 107.000,340.333 107.000 C 343.475 107.000,343.667 106.952,343.667 106.167 C 343.667 105.405,343.436 105.333,340.967 105.333 L 338.667 105.333 338.667 103.583 L 338.667 101.833 341.080 101.833 L 343.494 101.833 343.601 101.404 C 343.877 100.305,343.586 100.167,341.004 100.167 L 338.667 100.167 338.667 98.505 L 338.667 96.842 341.038 96.796 L 343.409 96.750 343.573 96.283 C 343.911 95.322,343.713 95.255,340.394 95.205 C 338.212 95.172,337.352 95.214,337.204 95.363 M344.458 95.263 C 344.179 95.545,344.313 106.790,344.597 106.899 C 345.817 107.367,346.167 106.937,346.167 104.967 L 346.167 103.333 346.715 103.333 C 347.228 103.333,347.338 103.448,348.469 105.176 L 349.675 107.019 350.379 106.968 C 351.347 106.898,351.366 106.507,350.472 105.065 C 350.080 104.433,349.718 103.879,349.668 103.833 C 349.053 103.277,349.035 102.890,349.608 102.582 C 352.095 101.242,352.043 97.541,349.512 95.750 C 348.802 95.248,344.851 94.867,344.458 95.263 M371.706 101.042 L 371.750 106.917 372.417 106.917 L 373.083 106.917 373.128 102.842 C 373.178 98.295,373.094 98.470,374.257 100.497 C 374.574 101.049,375.107 101.969,375.442 102.542 C 376.107 103.681,376.523 104.416,377.329 105.875 C 377.869 106.852,378.228 107.085,379.025 106.972 L 379.417 106.917 379.417 101.083 L 379.417 95.250 378.667 95.250 L 377.917 95.250 377.872 99.236 L 377.827 103.222 376.724 101.319 C 376.118 100.273,375.360 98.967,375.040 98.417 C 374.720 97.867,374.256 97.057,374.010 96.618 C 373.302 95.355,373.085 95.167,372.333 95.167 L 371.662 95.167 371.706 101.042 M143.250 97.128 C 147.309 99.223,145.879 105.387,141.333 105.387 C 138.202 105.387,136.140 102.304,137.312 99.375 C 138.222 97.099,141.092 96.013,143.250 97.128 M270.017 96.861 C 273.253 97.972,274.155 101.546,271.835 104.062 C 268.070 108.147,261.944 102.547,265.442 98.218 C 266.474 96.941,268.500 96.340,270.017 96.861 M366.624 97.172 C 370.498 99.107,369.493 104.767,365.164 105.399 C 364.147 105.547,362.742 105.087,361.867 104.320 C 358.021 100.945,362.052 94.887,366.624 97.172 M194.293 97.166 C 196.464 98.489,195.501 101.441,192.836 101.634 L 191.833 101.707 191.833 99.270 L 191.833 96.833 192.792 96.834 C 193.454 96.834,193.918 96.937,194.293 97.166 M208.119 97.100 C 212.133 98.445,211.799 104.551,207.682 105.097 L 206.833 105.210 206.833 101.021 C 206.833 96.330,206.733 96.636,208.119 97.100 M321.585 97.073 C 324.011 98.087,322.813 101.649,320.042 101.663 L 319.333 101.667 319.333 99.250 L 319.333 96.833 320.172 96.833 C 320.633 96.833,321.269 96.941,321.585 97.073 M333.798 97.151 C 336.168 98.367,334.950 101.667,332.131 101.667 L 331.333 101.667 331.333 99.250 L 331.333 96.833 332.257 96.833 C 332.837 96.833,333.410 96.951,333.798 97.151 M348.431 97.101 C 350.792 98.221,349.590 101.667,346.839 101.667 L 346.167 101.667 346.167 99.250 L 346.167 96.833 347.016 96.833 C 347.484 96.833,348.120 96.954,348.431 97.101 M186.030 100.772 C 186.075 101.035,185.958 101.091,185.270 101.135 C 184.653 101.174,184.477 101.134,184.540 100.968 C 184.586 100.848,184.763 100.308,184.933 99.768 L 185.242 98.786 185.609 99.624 C 185.811 100.084,186.001 100.601,186.030 100.772 M313.158 100.000 C 313.592 101.239,313.621 101.167,312.672 101.167 C 312.196 101.167,311.831 101.110,311.863 101.042 C 311.894 100.973,312.102 100.436,312.325 99.849 C 312.635 99.032,312.756 98.856,312.842 99.099 C 312.903 99.274,313.045 99.679,313.158 100.000 M224.667 99.167 C 224.667 99.258,224.660 99.352,224.653 99.375 C 224.645 99.398,224.794 99.810,224.984 100.292 L 225.328 101.167 224.498 101.167 C 223.536 101.167,223.555 101.218,224.041 99.965 C 224.378 99.095,224.667 98.727,224.667 99.167 M385.005 100.625 L 385.132 101.167 384.334 101.167 L 383.537 101.167 383.789 100.292 C 384.246 98.707,384.578 98.798,385.005 100.625 M241.542 101.777 C 241.260 101.891,241.277 102.912,241.565 103.151 C 241.721 103.281,242.523 103.328,244.023 103.297 L 246.250 103.250 246.301 102.458 L 246.352 101.667 244.051 101.680 C 242.785 101.687,241.656 101.731,241.542 101.777 " stroke="none" fill="#64bcbc" fill-rule="evenodd"></path><path id="path3" d="M46.213 49.289 C 46.652 49.324,47.327 49.323,47.713 49.288 C 48.100 49.254,47.742 49.225,46.917 49.226 C 46.092 49.226,45.775 49.255,46.213 49.289 " stroke="none" fill="#6ca8b0" fill-rule="evenodd"></path><path id="path4" d="M46.213 49.289 C 46.652 49.324,47.327 49.323,47.713 49.288 C 48.100 49.254,47.742 49.225,46.917 49.226 C 46.092 49.226,45.775 49.255,46.213 49.289 " stroke="none" fill="#6ca8b0" fill-rule="evenodd"></path></g></svg>